<?xml version="1.0" encoding="UTF-8"?>
<svg id="Layer_1" data-name="Layer 1" xmlns="http://www.w3.org/2000/svg" viewBox="0 0 275.63 276.64">
  <defs>
    <style>
      .cls-1 {
        fill: #302c28;
        stroke-width: 0px;
      }
    </style>
  </defs>
  <path class="cls-1" d="M148.2,184.08c0,2.08-.84,3.95-2.2,5.34-1.37,1.35-3.24,2.2-5.34,2.2h-5.62c-2.1,0-3.97-.86-5.34-2.22-1.37-1.37-2.2-3.24-2.2-5.34,0-4.18,3.36-7.54,7.54-7.54h5.62c4.18,0,7.54,3.38,7.54,7.56Z"/>
  <path class="cls-1" d="M117.81,122.9v21.24c0,1.65-1.34,3-3.02,3-.77,0-1.47-.29-2-.77-.55-.49-.9-1.16-.96-1.92-.04-.1-.04-.2-.04-.31v-21.24c0-1.65,1.34-3,3-3s3.02,1.35,3.02,3Z"/>
  <path class="cls-1" d="M72.77,56.06c4.99,6.95,11.87,19.49,11.26,35.14-.07,1.72,1.92,2.7,3.2,1.55l15.33-13.76c.79-.71.87-1.9.17-2.7-3.67-4.17-15.04-16.39-27.51-23.05-1.78-.95-3.63,1.18-2.45,2.82Z"/>
  <path class="cls-1" d="M72.46,106.89c3.08-2.84,4.87-6.82,4.88-11.01.03-12.51-2.44-38.92-22.73-49.87,0,0-8.2-4.82-8.34,19.2-.08,13.56-.93,24.2,1.08,33.67,2.45,11.5,16.46,15.98,25.1,8.02h0Z"/>
  <path class="cls-1" d="M50.81,126.39l2.47-2.35c.74-.71.74-1.87.02-2.61-9.93-10.25-12.46-21.01-12.73-28.6-.07-2.05-2.96-2.42-3.57-.46-2.81,9-3.4,22.63,11.43,34.16.71.55,1.73.48,2.38-.14Z"/>
  <path class="cls-1" d="M137.84,231.02h-.04c-4.3-.09-12.05-1.47-13.93-3.36-.95-.95-4.79-10.4-11.42-28.1-.35-.93.12-1.97,1.06-2.32.93-.35,1.97.12,2.32,1.06,4.42,11.81,9.59,25.04,10.65,26.86,1.06.71,6.68,2.15,11.39,2.25,1,.02,1.79.85,1.77,1.84-.02.98-.82,1.77-1.8,1.77Z"/>
  <path class="cls-1" d="M174.62,172.94c.01.09.03.18.04.28.85,5.7,7.31,8.62,12.13,5.47l31.46-20.53c2.24-1.46,3.58-3.95,3.58-6.62v-5.44c0-4.76-4.17-8.44-8.9-7.84l-10.19,1.29c-4.16.53-7.22,4.21-6.89,8.39.47,5.92-1.64,13.65-14.81,15.94-4.27.74-7.13,4.78-6.44,9.06Z"/>
  <path class="cls-1" d="M163.39,145.24c2.02-3.61,5.63-7.87,11.7-9.15,2-.42,4.07.13,5.63,1.44,3.25,2.75,7.89,8.53,3,16.65-.86,1.42-2.2,2.5-3.8,2.97-2.76.81-7.62,1.08-14.23-3.04-3.01-1.87-4.04-5.78-2.31-8.87Z"/>
  <rect class="cls-1" x="157.89" y="119.92" width="6.01" height="27.23" rx="3.01" ry="3.01"/>
  <path class="cls-1" d="M203.23,106.9c-3.08-2.84-4.87-6.82-4.88-11.01-.03-12.51,2.44-38.92,22.73-49.87,0,0,8.2-4.82,8.34,19.2.08,13.56.93,24.2-1.08,33.67-2.45,11.5-16.46,15.98-25.1,8.02h0Z"/>
  <path class="cls-1" d="M164.52,178.7c0,1.02-.73,1.94-1.77,2.14-1.04.2-2.08-.37-2.47-1.35-5.69-13.84-22.44-13.69-22.44-13.69,0,0-16.75-.16-22.44,13.69-.39.98-1.43,1.53-2.47,1.32-1.04-.2-1.77-1.12-1.77-2.16,0-.14.02-.31.06-.47,1.2-5.43,4.69-19.78,10.26-30.25,3.21-6.03,9.53-9.75,16.37-9.75h0c6.8,0,13.1,3.7,16.3,9.7,5.59,10.47,9.1,24.86,10.3,30.3.04.16.06.35.06.51Z"/>
  <path class="cls-1" d="M109.98,154.1c-6.6,4.12-11.45,3.85-14.22,3.04-1.59-.47-2.93-1.53-3.79-2.96-4.89-8.13-.24-13.9,3-16.65,1.55-1.32,3.63-1.87,5.62-1.45,5.65,1.16,9.15,4.93,11.25,8.36.06.75.41,1.43.96,1.92.98,2.87-.14,6.09-2.81,7.74Z"/>
  <path class="cls-1" d="M137.84,231.03c-.98,0-1.78-.78-1.8-1.77-.02-1,.77-1.82,1.77-1.84,4.68-.1,10.26-1.52,11.4-2.27,1.08-1.86,6.24-15.07,10.65-26.85.35-.93,1.39-1.41,2.32-1.06.93.35,1.4,1.39,1.06,2.32-6.63,17.7-10.47,27.15-11.42,28.1-1.89,1.88-9.63,3.27-13.93,3.36h-.04Z"/>
  <path class="cls-1" d="M81.53,229.41c-.39,0-.79-.13-1.13-.4-.78-.62-.9-1.76-.28-2.53l22.96-28.67c.62-.78,1.75-.91,2.53-.28.78.62.9,1.76.28,2.53l-22.96,28.67c-.35.45-.88.68-1.41.68Z"/>
  <path class="cls-1" d="M41.94,222.88c-.6,0-1.18-.29-1.52-.83-.54-.84-.29-1.95.55-2.49l51.07-32.64c.84-.53,1.96-.29,2.49.55.54.84.29,1.95-.55,2.49l-51.07,32.64c-.3.19-.64.28-.97.28Z"/>
  <path class="cls-1" d="M44.71,189.38c-.76,0-1.46-.48-1.71-1.23-.32-.94.2-1.97,1.14-2.28l30.61-10.22c.94-.31,1.97.2,2.28,1.14.32.94-.2,1.97-1.14,2.28l-30.61,10.22c-.19.06-.38.09-.57.09Z"/>
  <path class="cls-1" d="M197.15,228.56c-.53,0-1.05-.23-1.41-.68l-22.95-28.67c-.62-.78-.5-1.91.28-2.54.78-.62,1.91-.49,2.54.28l22.95,28.67c.62.78.5,1.91-.28,2.54-.33.26-.73.39-1.13.39Z"/>
  <path class="cls-1" d="M236.74,222.03c-.33,0-.67-.09-.97-.28l-51.07-32.64c-.84-.54-1.09-1.65-.55-2.49.54-.84,1.65-1.08,2.49-.55l51.07,32.64c.84.54,1.09,1.65.55,2.49-.34.54-.93.83-1.52.83Z"/>
  <path class="cls-1" d="M233.97,188.53c-.19,0-.38-.03-.57-.09l-30.61-10.21c-.94-.32-1.46-1.34-1.14-2.28s1.33-1.45,2.28-1.14l30.61,10.21c.94.32,1.46,1.34,1.14,2.28-.25.76-.96,1.23-1.71,1.23Z"/>
  <path class="cls-1" d="M138.14,196.31l13.4,2.11c1.17.18,1.89,1.39,1.5,2.51l-6.84,19.51c-.27.76-.99,1.27-1.8,1.27h-13.13c-.81,0-1.53-.51-1.8-1.27l-6.84-19.51c-.39-1.12.33-2.33,1.5-2.51l13.41-2.11c.2-.03.4-.03.59,0Z"/>
  <path class="cls-1" d="M202.86,56.02c-4.99,6.95-11.87,19.49-11.26,35.14.07,1.72-1.92,2.7-3.2,1.55l-15.33-13.76c-.79-.71-.87-1.9-.17-2.7,3.67-4.17,15.04-16.39,27.51-23.05,1.78-.95,3.63,1.18,2.45,2.82Z"/>
  <path class="cls-1" d="M224.82,126.35l-2.47-2.35c-.74-.71-.74-1.87-.02-2.61,9.93-10.25,12.46-21.01,12.73-28.6.07-2.05,2.96-2.42,3.57-.46,2.81,9,3.4,22.63-11.43,34.16-.71.55-1.73.48-2.38-.14Z"/>
  <path class="cls-1" d="M104.76,175.52c-.01.09-.03.18-.04.28-.85,5.7-7.31,8.62-12.13,5.47l-31.46-20.53c-2.24-1.46-3.58-3.95-3.58-6.62v-5.44c0-4.76,4.17-8.44,8.9-7.84l10.19,1.29c4.16.53,7.22,4.21,6.89,8.39-.47,5.92,1.64,13.65,14.81,15.94,4.27.74,7.13,4.78,6.44,9.06Z"/>
</svg>